Release info:

General
Format                                   : Matroska
Format version                           : Version 4 / Version 2
File size                                : 690 MiB
Duration                                 : 1h 21mn
Overall bit rate                         : 1 182 Kbps
Movie name                               : The Collection 2012 BDRip English

Video
ID                                       : 1
Format                                   : MPEG-4 Visual
Format profile                           : Advanced Simple@L5
Format settings, BVOP                    : Yes
Format settings, QPel                    : No
Format settings, GMC                     : No warppoints
Format settings, Matrix                  : Default (H.263)
Codec ID                                 : V_MS/VFW/FOURCC / XVID
Codec ID/Hint                            : XviD
Duration                                 : 1h 21mn
Bit rate                                 : 1 031 Kbps
Width                                    : 640 pixels
Height                                   : 272 pixels
Display aspect ratio                     : 2.35:1
Frame rate mode                          : Constant
Frame rate                               : 24.000 fps
Color space                              : YUV
Chroma subsampling                       : 4:2:0
Bit depth                                : 8 bits
Scan type                                : Progressive
Compression mode                         : Lossy
Bits/(Pixel*Frame)                       : 0.247
Stream size                              : 602 MiB (87%)
Title                                    : The Collection 2012 BDRip English
Writing library                          : XviD 64
Language                                 : English
Default                                  : Yes
Forced                                   : No

Audio
ID                                       : 2
Format                                   : MPEG Audio
Format version                           : Version 1
Format profile                           : Layer 3
Mode                                     : Joint stereo
Mode extension                           : MS Stereo
Codec ID                                 : A_MPEG/L3
Codec ID/Hint                            : MP3
Duration                                 : 1h 21mn
Bit rate mode                            : Constant
Bit rate                                 : 128 Kbps
Channel(s)                               : 2 channels
Sampling rate                            : 48.0 KHz
Compression mode                         : Lossy
Stream size                              : 74.7 MiB (11%)
Title                                    : The Collection 2012 BDRip English
Language                                 : English
Default                                  : Yes
Forced                                   : No

Source:
credit to original movie ripper TiCKLE-TiME (Thanks)

IMDB Info:

A man who escapes from the vicious grips of the serial killer known as "The Collector" is blackmailed to rescue an innocent girl from the killer's booby-trapped warehouse.

Director: Marcus Dunstan
Writers: Patrick Melton, Marcus Dunstan, 
Stars: Josh Stewart, Emma Fitzpatrick and Christopher McDonald 

Genres: Action | Horror | Thriller
 
http://www.imdb.com/title/tt1748227/

Screen Shot:
 
http://www.shotpix.com/images/69630683580751669610.png 
http://www.shotpix.com/images/64868244821952613406.png 
http://www.shotpix.com/images/65332089985986503839.png 
http://www.shotpix.com/images/32252147037137617547.png